<svg width="69" height="69" viewBox="0 0 69 69" fill="none" xmlns="http://www.w3.org/2000/svg">
<circle cx="34.5" cy="34.5" r="34.5" fill="#FE4300"/>
<path d="M25.336 49V43.28H33.74C35.2653 43.28 36.5413 42.9573 37.568 42.312C38.5947 41.6667 39.3573 40.6987 39.856 39.408C40.384 38.1173 40.648 36.504 40.648 34.568C40.648 33.0133 40.4867 31.6787 40.164 30.564C39.8413 29.4493 39.3573 28.54 38.712 27.836C38.096 27.1027 37.2893 26.56 36.292 26.208C35.324 25.856 34.18 25.68 32.86 25.68H25.336V19.96H32.596C36.204 19.96 39.152 20.532 41.44 21.676C43.728 22.82 45.4 24.4627 46.456 26.604C47.512 28.716 48.04 31.2533 48.04 34.216C48.04 36.504 47.7613 38.484 47.204 40.156C46.676 41.828 45.9427 43.236 45.004 44.38C44.0653 45.4947 42.98 46.404 41.748 47.108C40.5453 47.7827 39.2693 48.2667 37.92 48.56C36.6 48.8533 35.28 49 33.96 49H25.336ZM22.036 49V19.96H29.12V49H22.036Z" fill="white"/>
</svg>
